<mxfile host="65bd71144e">
    <diagram id="MkvUBDTMLH-L1xOQZ4Vr" name="Page-1">
        <mxGraphModel dx="1646" dy="794" grid="1" gridSize="10" guides="1" tooltips="1" connect="1" arrows="1" fold="1" page="1" pageScale="1" pageWidth="850" pageHeight="1100" math="1" shadow="0">
            <root>
                <mxCell id="0"/>
                <mxCell id="1" parent="0"/>
                <mxCell id="50" value="" style="rounded=1;whiteSpace=wrap;html=1;fontSize=16;fontColor=#0A0A0A;strokeColor=#000000;strokeWidth=2;fillColor=none;dashed=1;" vertex="1" parent="1">
                    <mxGeometry x="60" y="60" width="120" height="480" as="geometry"/>
                </mxCell>
                <mxCell id="51" value="" style="rounded=1;whiteSpace=wrap;html=1;fontSize=16;fontColor=#0A0A0A;strokeColor=#000000;strokeWidth=2;fillColor=none;dashed=1;" vertex="1" parent="1">
                    <mxGeometry x="300" y="60" width="120" height="480" as="geometry"/>
                </mxCell>
                <mxCell id="52" value="" style="rounded=1;whiteSpace=wrap;html=1;fontSize=16;fontColor=#0A0A0A;strokeColor=#000000;strokeWidth=2;fillColor=none;dashed=1;" vertex="1" parent="1">
                    <mxGeometry x="590" y="60" width="120" height="480" as="geometry"/>
                </mxCell>
                <mxCell id="53" value="" style="rounded=1;whiteSpace=wrap;html=1;fontSize=16;fontColor=#0A0A0A;strokeColor=#000000;strokeWidth=2;fillColor=none;dashed=1;" vertex="1" parent="1">
                    <mxGeometry x="830" y="60" width="120" height="480" as="geometry"/>
                </mxCell>
                <mxCell id="10" style="edgeStyle=none;html=1;exitX=1;exitY=0.5;exitDx=0;exitDy=0;entryX=0;entryY=0.5;entryDx=0;entryDy=0;fontSize=16;fontColor=#0A0A0A;strokeColor=#000000;endArrow=none;endFill=0;" edge="1" parent="1" source="2" target="6">
                    <mxGeometry relative="1" as="geometry"/>
                </mxCell>
                <mxCell id="11" style="edgeStyle=none;html=1;exitX=1;exitY=0.5;exitDx=0;exitDy=0;entryX=0;entryY=0.5;entryDx=0;entryDy=0;fontSize=16;fontColor=#0A0A0A;strokeColor=#000000;endArrow=none;endFill=0;" edge="1" parent="1" source="2" target="7">
                    <mxGeometry relative="1" as="geometry"/>
                </mxCell>
                <mxCell id="12" style="edgeStyle=none;html=1;exitX=1;exitY=0.5;exitDx=0;exitDy=0;entryX=0;entryY=0.5;entryDx=0;entryDy=0;fontSize=16;fontColor=#0A0A0A;strokeColor=#000000;endArrow=none;endFill=0;" edge="1" parent="1" source="2" target="8">
                    <mxGeometry relative="1" as="geometry"/>
                </mxCell>
                <mxCell id="13" style="edgeStyle=none;html=1;exitX=1;exitY=0.5;exitDx=0;exitDy=0;entryX=0;entryY=0.5;entryDx=0;entryDy=0;fontSize=16;fontColor=#0A0A0A;strokeColor=#000000;endArrow=none;endFill=0;" edge="1" parent="1" source="2" target="9">
                    <mxGeometry relative="1" as="geometry"/>
                </mxCell>
                <mxCell id="2" value="&lt;font color=&quot;#0a0a0a&quot; style=&quot;font-size: 16px&quot;&gt;\(A_0\)&lt;/font&gt;" style="ellipse;whiteSpace=wrap;html=1;aspect=fixed;fillColor=#f0a30a;strokeColor=#BD7000;strokeWidth=2;fontColor=#000000;" vertex="1" parent="1">
                    <mxGeometry x="80" y="80" width="80" height="80" as="geometry"/>
                </mxCell>
                <mxCell id="14" style="edgeStyle=none;html=1;exitX=1;exitY=0.5;exitDx=0;exitDy=0;entryX=0;entryY=0.5;entryDx=0;entryDy=0;fontSize=16;fontColor=#0A0A0A;strokeColor=#000000;endArrow=none;endFill=0;" edge="1" parent="1" source="3" target="6">
                    <mxGeometry relative="1" as="geometry"/>
                </mxCell>
                <mxCell id="15" style="edgeStyle=none;html=1;exitX=1;exitY=0.5;exitDx=0;exitDy=0;entryX=0;entryY=0.5;entryDx=0;entryDy=0;fontSize=16;fontColor=#0A0A0A;strokeColor=#000000;endArrow=none;endFill=0;" edge="1" parent="1" source="3" target="7">
                    <mxGeometry relative="1" as="geometry"/>
                </mxCell>
                <mxCell id="16" style="edgeStyle=none;html=1;exitX=1;exitY=0.5;exitDx=0;exitDy=0;entryX=0;entryY=0.5;entryDx=0;entryDy=0;fontSize=16;fontColor=#0A0A0A;strokeColor=#000000;endArrow=none;endFill=0;" edge="1" parent="1" source="3" target="8">
                    <mxGeometry relative="1" as="geometry"/>
                </mxCell>
                <mxCell id="17" style="edgeStyle=none;html=1;exitX=1;exitY=0.5;exitDx=0;exitDy=0;entryX=0;entryY=0.5;entryDx=0;entryDy=0;fontSize=16;fontColor=#0A0A0A;strokeColor=#000000;endArrow=none;endFill=0;" edge="1" parent="1" source="3" target="9">
                    <mxGeometry relative="1" as="geometry"/>
                </mxCell>
                <mxCell id="3" value="&lt;font color=&quot;#0a0a0a&quot; style=&quot;font-size: 16px&quot;&gt;\(A_1\)&lt;/font&gt;" style="ellipse;whiteSpace=wrap;html=1;aspect=fixed;fillColor=#f0a30a;strokeColor=#BD7000;strokeWidth=2;fontColor=#000000;" vertex="1" parent="1">
                    <mxGeometry x="80" y="200" width="80" height="80" as="geometry"/>
                </mxCell>
                <mxCell id="18" style="edgeStyle=none;html=1;exitX=1;exitY=0.5;exitDx=0;exitDy=0;entryX=0;entryY=0.5;entryDx=0;entryDy=0;fontSize=16;fontColor=#0A0A0A;strokeColor=#000000;endArrow=none;endFill=0;" edge="1" parent="1" source="4" target="6">
                    <mxGeometry relative="1" as="geometry"/>
                </mxCell>
                <mxCell id="19" style="edgeStyle=none;html=1;exitX=1;exitY=0.5;exitDx=0;exitDy=0;entryX=0;entryY=0.5;entryDx=0;entryDy=0;fontSize=16;fontColor=#0A0A0A;strokeColor=#000000;endArrow=none;endFill=0;" edge="1" parent="1" source="4" target="7">
                    <mxGeometry relative="1" as="geometry"/>
                </mxCell>
                <mxCell id="20" style="edgeStyle=none;html=1;exitX=1;exitY=0.5;exitDx=0;exitDy=0;entryX=0;entryY=0.5;entryDx=0;entryDy=0;fontSize=16;fontColor=#0A0A0A;strokeColor=#000000;endArrow=none;endFill=0;" edge="1" parent="1" source="4" target="8">
                    <mxGeometry relative="1" as="geometry"/>
                </mxCell>
                <mxCell id="21" style="edgeStyle=none;html=1;exitX=1;exitY=0.5;exitDx=0;exitDy=0;entryX=0;entryY=0.5;entryDx=0;entryDy=0;fontSize=16;fontColor=#0A0A0A;strokeColor=#000000;endArrow=none;endFill=0;" edge="1" parent="1" source="4" target="9">
                    <mxGeometry relative="1" as="geometry"/>
                </mxCell>
                <mxCell id="4" value="&lt;font color=&quot;#0a0a0a&quot; style=&quot;font-size: 16px&quot;&gt;\(A_2\)&lt;/font&gt;" style="ellipse;whiteSpace=wrap;html=1;aspect=fixed;fillColor=#f0a30a;strokeColor=#BD7000;strokeWidth=2;fontColor=#000000;" vertex="1" parent="1">
                    <mxGeometry x="80" y="320" width="80" height="80" as="geometry"/>
                </mxCell>
                <mxCell id="22" style="edgeStyle=none;html=1;exitX=1;exitY=0.5;exitDx=0;exitDy=0;entryX=0;entryY=0.5;entryDx=0;entryDy=0;fontSize=16;fontColor=#0A0A0A;strokeColor=#000000;endArrow=none;endFill=0;" edge="1" parent="1" source="5" target="6">
                    <mxGeometry relative="1" as="geometry"/>
                </mxCell>
                <mxCell id="23" style="edgeStyle=none;html=1;exitX=1;exitY=0.5;exitDx=0;exitDy=0;entryX=0;entryY=0.5;entryDx=0;entryDy=0;fontSize=16;fontColor=#0A0A0A;strokeColor=#000000;endArrow=none;endFill=0;" edge="1" parent="1" source="5" target="7">
                    <mxGeometry relative="1" as="geometry"/>
                </mxCell>
                <mxCell id="24" style="edgeStyle=none;html=1;exitX=1;exitY=0.5;exitDx=0;exitDy=0;entryX=0;entryY=0.5;entryDx=0;entryDy=0;fontSize=16;fontColor=#0A0A0A;strokeColor=#000000;endArrow=none;endFill=0;" edge="1" parent="1" source="5" target="8">
                    <mxGeometry relative="1" as="geometry"/>
                </mxCell>
                <mxCell id="25" style="edgeStyle=none;html=1;exitX=1;exitY=0.5;exitDx=0;exitDy=0;entryX=0;entryY=0.5;entryDx=0;entryDy=0;fontSize=16;fontColor=#0A0A0A;strokeColor=#000000;endArrow=none;endFill=0;" edge="1" parent="1" source="5" target="9">
                    <mxGeometry relative="1" as="geometry"/>
                </mxCell>
                <mxCell id="5" value="&lt;font color=&quot;#0a0a0a&quot; style=&quot;font-size: 16px&quot;&gt;\(A_3\)&lt;/font&gt;" style="ellipse;whiteSpace=wrap;html=1;aspect=fixed;fillColor=#f0a30a;strokeColor=#BD7000;strokeWidth=2;fontColor=#000000;" vertex="1" parent="1">
                    <mxGeometry x="80" y="440" width="80" height="80" as="geometry"/>
                </mxCell>
                <mxCell id="6" value="&lt;font color=&quot;#0a0a0a&quot; style=&quot;font-size: 16px&quot;&gt;\(B_0\)&lt;/font&gt;" style="ellipse;whiteSpace=wrap;html=1;aspect=fixed;fillColor=#647687;strokeColor=#314354;strokeWidth=2;fontColor=#ffffff;" vertex="1" parent="1">
                    <mxGeometry x="320" y="80" width="80" height="80" as="geometry"/>
                </mxCell>
                <mxCell id="7" value="&lt;font color=&quot;#0a0a0a&quot; style=&quot;font-size: 16px&quot;&gt;\(B_1\)&lt;/font&gt;" style="ellipse;whiteSpace=wrap;html=1;aspect=fixed;fillColor=#647687;strokeColor=#314354;strokeWidth=2;fontColor=#ffffff;" vertex="1" parent="1">
                    <mxGeometry x="320" y="200" width="80" height="80" as="geometry"/>
                </mxCell>
                <mxCell id="8" value="&lt;font color=&quot;#0a0a0a&quot; style=&quot;font-size: 16px&quot;&gt;\(B_2\)&lt;/font&gt;" style="ellipse;whiteSpace=wrap;html=1;aspect=fixed;fillColor=#647687;strokeColor=#314354;strokeWidth=2;fontColor=#ffffff;" vertex="1" parent="1">
                    <mxGeometry x="320" y="320" width="80" height="80" as="geometry"/>
                </mxCell>
                <mxCell id="9" value="&lt;font color=&quot;#0a0a0a&quot; style=&quot;font-size: 16px&quot;&gt;\(B_3\)&lt;/font&gt;" style="ellipse;whiteSpace=wrap;html=1;aspect=fixed;fillColor=#647687;strokeColor=#314354;strokeWidth=2;fontColor=#ffffff;" vertex="1" parent="1">
                    <mxGeometry x="320" y="440" width="80" height="80" as="geometry"/>
                </mxCell>
                <mxCell id="26" style="edgeStyle=none;html=1;exitX=1;exitY=0.5;exitDx=0;exitDy=0;entryX=0;entryY=0.5;entryDx=0;entryDy=0;fontSize=16;fontColor=#0A0A0A;strokeColor=#000000;endArrow=none;endFill=0;" edge="1" parent="1" source="30" target="46">
                    <mxGeometry relative="1" as="geometry"/>
                </mxCell>
                <mxCell id="30" value="&lt;font color=&quot;#0a0a0a&quot; style=&quot;font-size: 16px&quot;&gt;\(A_0\)&lt;/font&gt;" style="ellipse;whiteSpace=wrap;html=1;aspect=fixed;fillColor=#f0a30a;strokeColor=#BD7000;strokeWidth=2;fontColor=#000000;" vertex="1" parent="1">
                    <mxGeometry x="610" y="80" width="80" height="80" as="geometry"/>
                </mxCell>
                <mxCell id="33" style="edgeStyle=none;html=1;exitX=1;exitY=0.5;exitDx=0;exitDy=0;entryX=0;entryY=0.5;entryDx=0;entryDy=0;fontSize=16;fontColor=#0A0A0A;strokeColor=#000000;endArrow=none;endFill=0;" edge="1" parent="1" source="35" target="48">
                    <mxGeometry relative="1" as="geometry"/>
                </mxCell>
                <mxCell id="35" value="&lt;font color=&quot;#0a0a0a&quot; style=&quot;font-size: 16px&quot;&gt;\(A_1\)&lt;/font&gt;" style="ellipse;whiteSpace=wrap;html=1;aspect=fixed;fillColor=#f0a30a;strokeColor=#BD7000;strokeWidth=2;fontColor=#000000;" vertex="1" parent="1">
                    <mxGeometry x="610" y="200" width="80" height="80" as="geometry"/>
                </mxCell>
                <mxCell id="39" style="edgeStyle=none;html=1;exitX=1;exitY=0.5;exitDx=0;exitDy=0;entryX=0;entryY=0.5;entryDx=0;entryDy=0;fontSize=16;fontColor=#0A0A0A;strokeColor=#000000;endArrow=none;endFill=0;" edge="1" parent="1" source="40" target="49">
                    <mxGeometry relative="1" as="geometry"/>
                </mxCell>
                <mxCell id="40" value="&lt;font color=&quot;#0a0a0a&quot; style=&quot;font-size: 16px&quot;&gt;\(A_2\)&lt;/font&gt;" style="ellipse;whiteSpace=wrap;html=1;aspect=fixed;fillColor=#f0a30a;strokeColor=#BD7000;strokeWidth=2;fontColor=#000000;" vertex="1" parent="1">
                    <mxGeometry x="610" y="320" width="80" height="80" as="geometry"/>
                </mxCell>
                <mxCell id="45" value="&lt;font color=&quot;#0a0a0a&quot; style=&quot;font-size: 16px&quot;&gt;\(A_3\)&lt;/font&gt;" style="ellipse;whiteSpace=wrap;html=1;aspect=fixed;fillColor=#f0a30a;strokeColor=#BD7000;strokeWidth=2;fontColor=#000000;" vertex="1" parent="1">
                    <mxGeometry x="610" y="440" width="80" height="80" as="geometry"/>
                </mxCell>
                <mxCell id="46" value="&lt;font color=&quot;#0a0a0a&quot; style=&quot;font-size: 16px&quot;&gt;\(B_0\)&lt;/font&gt;" style="ellipse;whiteSpace=wrap;html=1;aspect=fixed;fillColor=#647687;strokeColor=#314354;strokeWidth=2;fontColor=#ffffff;" vertex="1" parent="1">
                    <mxGeometry x="850" y="80" width="80" height="80" as="geometry"/>
                </mxCell>
                <mxCell id="47" value="&lt;font color=&quot;#0a0a0a&quot; style=&quot;font-size: 16px&quot;&gt;\(B_1\)&lt;/font&gt;" style="ellipse;whiteSpace=wrap;html=1;aspect=fixed;fillColor=#647687;strokeColor=#314354;strokeWidth=2;fontColor=#ffffff;" vertex="1" parent="1">
                    <mxGeometry x="850" y="200" width="80" height="80" as="geometry"/>
                </mxCell>
                <mxCell id="48" value="&lt;font color=&quot;#0a0a0a&quot; style=&quot;font-size: 16px&quot;&gt;\(B_2\)&lt;/font&gt;" style="ellipse;whiteSpace=wrap;html=1;aspect=fixed;fillColor=#647687;strokeColor=#314354;strokeWidth=2;fontColor=#ffffff;" vertex="1" parent="1">
                    <mxGeometry x="850" y="320" width="80" height="80" as="geometry"/>
                </mxCell>
                <mxCell id="49" value="&lt;font color=&quot;#0a0a0a&quot; style=&quot;font-size: 16px&quot;&gt;\(B_3\)&lt;/font&gt;" style="ellipse;whiteSpace=wrap;html=1;aspect=fixed;fillColor=#647687;strokeColor=#314354;strokeWidth=2;fontColor=#ffffff;" vertex="1" parent="1">
                    <mxGeometry x="850" y="440" width="80" height="80" as="geometry"/>
                </mxCell>
                <mxCell id="54" value="\(\mathcal{T}_A\)" style="text;html=1;align=center;verticalAlign=middle;resizable=0;points=[];autosize=1;strokeColor=none;fillColor=none;fontSize=16;fontColor=#0A0A0A;" vertex="1" parent="1">
                    <mxGeometry x="50" y="560" width="140" height="20" as="geometry"/>
                </mxCell>
                <mxCell id="55" value="\(\mathcal{T}_B\)" style="text;html=1;align=center;verticalAlign=middle;resizable=0;points=[];autosize=1;strokeColor=none;fillColor=none;fontSize=16;fontColor=#0A0A0A;" vertex="1" parent="1">
                    <mxGeometry x="290" y="560" width="140" height="20" as="geometry"/>
                </mxCell>
                <mxCell id="56" value="\(\mathcal{T}_A\)" style="text;html=1;align=center;verticalAlign=middle;resizable=0;points=[];autosize=1;strokeColor=none;fillColor=none;fontSize=16;fontColor=#0A0A0A;" vertex="1" parent="1">
                    <mxGeometry x="580" y="560" width="140" height="20" as="geometry"/>
                </mxCell>
                <mxCell id="57" value="\(\mathcal{T}_B\)" style="text;html=1;align=center;verticalAlign=middle;resizable=0;points=[];autosize=1;strokeColor=none;fillColor=none;fontSize=16;fontColor=#0A0A0A;" vertex="1" parent="1">
                    <mxGeometry x="820" y="560" width="140" height="20" as="geometry"/>
                </mxCell>
                <mxCell id="59" value="\(\mathcal{D}_{AB}\)" style="text;html=1;align=center;verticalAlign=middle;resizable=0;points=[];autosize=1;strokeColor=none;fillColor=none;fontSize=16;fontColor=#0A0A0A;" vertex="1" parent="1">
                    <mxGeometry x="160" y="610" width="160" height="20" as="geometry"/>
                </mxCell>
                <mxCell id="60" value="\(\mathcal{M}_{AB}\)" style="text;html=1;align=center;verticalAlign=middle;resizable=0;points=[];autosize=1;strokeColor=none;fillColor=none;fontSize=16;fontColor=#0A0A0A;" vertex="1" parent="1">
                    <mxGeometry x="690" y="610" width="160" height="20" as="geometry"/>
                </mxCell>
            </root>
        </mxGraphModel>
    </diagram>
</mxfile>